<svg width="100" height="10" viewBox="0 0 100 10" fill="none" xmlns="http://www.w3.org/2000/svg">
<path d="M3.708 1.00942H4.416L7.956 9.52942H7.068L5.964 6.86542H2.136L1.044 9.52942H0.144L3.708 1.00942ZM5.772 6.20542L4.056 1.99342L2.316 6.20542H5.772ZM15.0094 3.99742C14.4574 4.01342 13.9774 4.16542 13.5694 4.45342C13.1614 4.74142 12.8734 5.13742 12.7054 5.64142V9.52942H11.8894V3.27742H12.6574V4.77742C12.8894 4.29742 13.2014 3.92142 13.5934 3.64942C13.9854 3.37742 14.4054 3.24142 14.8534 3.24142C14.9174 3.24142 14.9694 3.24542 15.0094 3.25342V3.99742ZM18.228 6.38542C18.228 5.94542 18.304 5.52942 18.456 5.13742C18.608 4.74542 18.82 4.40542 19.092 4.11742C19.372 3.82142 19.704 3.58942 20.088 3.42142C20.472 3.25342 20.896 3.16942 21.36 3.16942C21.952 3.16942 22.468 3.30542 22.908 3.57742C23.348 3.84142 23.68 4.20142 23.904 4.65742L23.112 4.90942C22.936 4.58942 22.688 4.34142 22.368 4.16542C22.056 3.98142 21.708 3.88942 21.324 3.88942C21.004 3.88942 20.704 3.95342 20.424 4.08142C20.152 4.20942 19.912 4.38542 19.704 4.60942C19.504 4.82542 19.344 5.08542 19.224 5.38942C19.112 5.69342 19.056 6.02542 19.056 6.38542C19.056 6.73742 19.116 7.06942 19.236 7.38142C19.356 7.69342 19.52 7.96542 19.728 8.19742C19.936 8.42142 20.176 8.60142 20.448 8.73742C20.728 8.86542 21.024 8.92942 21.336 8.92942C21.536 8.92942 21.732 8.90142 21.924 8.84542C22.124 8.78942 22.308 8.71342 22.476 8.61742C22.644 8.51342 22.788 8.39742 22.908 8.26942C23.028 8.14142 23.112 8.00542 23.16 7.86142L23.964 8.10142C23.876 8.32542 23.748 8.53342 23.58 8.72542C23.412 8.90942 23.212 9.07342 22.98 9.21742C22.756 9.35342 22.504 9.45742 22.224 9.52942C21.952 9.60942 21.668 9.64942 21.372 9.64942C20.916 9.64942 20.496 9.56542 20.112 9.39742C19.728 9.22142 19.396 8.98542 19.116 8.68942C18.836 8.38542 18.616 8.03742 18.456 7.64542C18.304 7.25342 18.228 6.83342 18.228 6.38542ZM33.3819 9.52942H32.5659V6.03742C32.5659 5.32542 32.4419 4.79342 32.1939 4.44142C31.9539 4.08942 31.5979 3.91342 31.1259 3.91342C30.8939 3.91342 30.6619 3.96142 30.4299 4.05742C30.2059 4.14542 29.9939 4.26942 29.7939 4.42942C29.5939 4.58942 29.4179 4.77742 29.2659 4.99342C29.1219 5.20942 29.0139 5.44542 28.9419 5.70142V9.52942H28.1259V0.769419H28.9419V4.69342C29.1899 4.22142 29.5339 3.84942 29.9739 3.57742C30.4139 3.30542 30.8899 3.16942 31.4019 3.16942C31.7619 3.16942 32.0659 3.23742 32.3139 3.37342C32.5619 3.50142 32.7659 3.68542 32.9259 3.92542C33.0859 4.15742 33.2019 4.44142 33.2739 4.77742C33.3459 5.10542 33.3819 5.46942 33.3819 5.86942V9.52942ZM38.002 9.52942V3.27742H38.818V9.52942H38.002ZM38.002 1.96942V0.769419H38.818V1.96942H38.002ZM46.4953 9.22942C46.4473 9.25342 46.3753 9.28542 46.2793 9.32542C46.1913 9.36542 46.0873 9.40542 45.9673 9.44542C45.8473 9.48542 45.7113 9.52142 45.5593 9.55342C45.4073 9.58542 45.2473 9.60142 45.0793 9.60142C44.9033 9.60142 44.7353 9.57742 44.5753 9.52942C44.4153 9.48142 44.2753 9.40942 44.1553 9.31342C44.0353 9.20942 43.9393 9.08142 43.8673 8.92942C43.7953 8.77742 43.7593 8.60142 43.7593 8.40142V3.92542H42.8953V3.27742H43.7593V1.16542H44.5753V3.27742H46.0153V3.92542H44.5753V8.17342C44.5913 8.40542 44.6713 8.57742 44.8153 8.68942C44.9673 8.79342 45.1393 8.84542 45.3313 8.84542C45.5633 8.84542 45.7673 8.80942 45.9433 8.73742C46.1193 8.65742 46.2313 8.60142 46.2793 8.56942L46.4953 9.22942ZM52.9425 9.64942C52.4865 9.64942 52.0665 9.56542 51.6825 9.39742C51.3065 9.22142 50.9785 8.98542 50.6985 8.68942C50.4185 8.38542 50.1985 8.03742 50.0385 7.64542C49.8865 7.25342 49.8105 6.83342 49.8105 6.38542C49.8105 5.94542 49.8865 5.53342 50.0385 5.14942C50.1985 4.75742 50.4145 4.41742 50.6865 4.12942C50.9665 3.83342 51.2985 3.60142 51.6825 3.43342C52.0665 3.25742 52.4825 3.16942 52.9305 3.16942C53.3865 3.16942 53.8025 3.25742 54.1785 3.43342C54.5625 3.60142 54.8905 3.83342 55.1625 4.12942C55.4345 4.42542 55.6465 4.76542 55.7985 5.14942C55.9505 5.53342 56.0265 5.94142 56.0265 6.37342C56.0265 6.43742 56.0265 6.50142 56.0265 6.56542C56.0265 6.62942 56.0225 6.67342 56.0145 6.69742H50.6625C50.6865 7.03342 50.7625 7.34542 50.8905 7.63342C51.0265 7.91342 51.1985 8.15742 51.4065 8.36542C51.6145 8.57342 51.8505 8.73742 52.1145 8.85742C52.3865 8.96942 52.6745 9.02542 52.9785 9.02542C53.1785 9.02542 53.3785 8.99742 53.5785 8.94142C53.7785 8.88542 53.9625 8.80942 54.1305 8.71342C54.2985 8.61742 54.4505 8.50142 54.5865 8.36542C54.7225 8.22142 54.8265 8.06542 54.8985 7.89742L55.6065 8.08942C55.5105 8.32142 55.3745 8.53342 55.1985 8.72542C55.0225 8.90942 54.8185 9.07342 54.5865 9.21742C54.3545 9.35342 54.0985 9.45742 53.8185 9.52942C53.5385 9.60942 53.2465 9.64942 52.9425 9.64942ZM55.2465 6.07342C55.2225 5.73742 55.1425 5.43342 55.0065 5.16142C54.8785 4.88142 54.7105 4.64142 54.5025 4.44142C54.3025 4.24142 54.0665 4.08542 53.7945 3.97342C53.5305 3.86142 53.2465 3.80542 52.9425 3.80542C52.6385 3.80542 52.3505 3.86142 52.0785 3.97342C51.8065 4.08542 51.5665 4.24142 51.3585 4.44142C51.1585 4.64142 50.9945 4.88142 50.8665 5.16142C50.7465 5.44142 50.6745 5.74542 50.6505 6.07342H55.2465ZM59.7335 6.38542C59.7335 5.94542 59.8095 5.52942 59.9615 5.13742C60.1135 4.74542 60.3255 4.40542 60.5975 4.11742C60.8775 3.82142 61.2095 3.58942 61.5935 3.42142C61.9775 3.25342 62.4015 3.16942 62.8655 3.16942C63.4575 3.16942 63.9735 3.30542 64.4135 3.57742C64.8535 3.84142 65.1855 4.20142 65.4095 4.65742L64.6175 4.90942C64.4415 4.58942 64.1935 4.34142 63.8735 4.16542C63.5615 3.98142 63.2135 3.88942 62.8295 3.88942C62.5095 3.88942 62.2095 3.95342 61.9295 4.08142C61.6575 4.20942 61.4175 4.38542 61.2095 4.60942C61.0095 4.82542 60.8495 5.08542 60.7295 5.38942C60.6175 5.69342 60.5615 6.02542 60.5615 6.38542C60.5615 6.73742 60.6215 7.06942 60.7415 7.38142C60.8615 7.69342 61.0255 7.96542 61.2335 8.19742C61.4415 8.42142 61.6815 8.60142 61.9535 8.73742C62.2335 8.86542 62.5295 8.92942 62.8415 8.92942C63.0415 8.92942 63.2375 8.90142 63.4295 8.84542C63.6295 8.78942 63.8135 8.71342 63.9815 8.61742C64.1495 8.51342 64.2935 8.39742 64.4135 8.26942C64.5335 8.14142 64.6175 8.00542 64.6655 7.86142L65.4695 8.10142C65.3815 8.32542 65.2535 8.53342 65.0855 8.72542C64.9175 8.90942 64.7175 9.07342 64.4855 9.21742C64.2615 9.35342 64.0095 9.45742 63.7295 9.52942C63.4575 9.60942 63.1735 9.64942 62.8775 9.64942C62.4215 9.64942 62.0015 9.56542 61.6175 9.39742C61.2335 9.22142 60.9015 8.98542 60.6215 8.68942C60.3415 8.38542 60.1215 8.03742 59.9615 7.64542C59.8095 7.25342 59.7335 6.83342 59.7335 6.38542ZM72.6314 9.22942C72.5834 9.25342 72.5114 9.28542 72.4154 9.32542C72.3274 9.36542 72.2234 9.40542 72.1034 9.44542C71.9834 9.48542 71.8474 9.52142 71.6954 9.55342C71.5434 9.58542 71.3834 9.60142 71.2154 9.60142C71.0394 9.60142 70.8714 9.57742 70.7114 9.52942C70.5514 9.48142 70.4114 9.40942 70.2914 9.31342C70.1714 9.20942 70.0754 9.08142 70.0034 8.92942C69.9314 8.77742 69.8954 8.60142 69.8954 8.40142V3.92542H69.0314V3.27742H69.8954V1.16542H70.7114V3.27742H72.1514V3.92542H70.7114V8.17342C70.7274 8.40542 70.8074 8.57742 70.9514 8.68942C71.1034 8.79342 71.2754 8.84542 71.4674 8.84542C71.6994 8.84542 71.9034 8.80942 72.0794 8.73742C72.2554 8.65742 72.3674 8.60142 72.4154 8.56942L72.6314 9.22942ZM78.4869 9.64942C77.8069 9.64942 77.2989 9.42542 76.9629 8.97742C76.6349 8.52142 76.4709 7.84542 76.4709 6.94942V3.27742H77.2869V6.80542C77.2869 8.22142 77.7709 8.92942 78.7389 8.92942C78.9789 8.92942 79.2149 8.88942 79.4469 8.80942C79.6789 8.72942 79.8909 8.61342 80.0829 8.46142C80.2829 8.30942 80.4589 8.12942 80.6109 7.92142C80.7709 7.71342 80.8989 7.47742 80.9949 7.21342V3.27742H81.8109V8.47342C81.8109 8.69742 81.9069 8.80942 82.0989 8.80942V9.52942C82.0029 9.54542 81.9229 9.55342 81.8589 9.55342C81.8029 9.55342 81.7629 9.55342 81.7389 9.55342C81.5469 9.54542 81.3909 9.47742 81.2709 9.34942C81.1509 9.22142 81.0909 9.04942 81.0909 8.83342V8.11342C80.8189 8.60142 80.4469 8.98142 79.9749 9.25342C79.5109 9.51742 79.0149 9.64942 78.4869 9.64942ZM89.6559 3.99742C89.1039 4.01342 88.6239 4.16542 88.2159 4.45342C87.8079 4.74142 87.5199 5.13742 87.3519 5.64142V9.52942H86.5359V3.27742H87.3039V4.77742C87.5359 4.29742 87.8479 3.92142 88.2399 3.64942C88.6319 3.37742 89.0519 3.24142 89.4999 3.24142C89.5639 3.24142 89.6159 3.24542 89.6559 3.25342V3.99742ZM96.0066 9.64942C95.5506 9.64942 95.1306 9.56542 94.7466 9.39742C94.3706 9.22142 94.0426 8.98542 93.7626 8.68942C93.4826 8.38542 93.2626 8.03742 93.1026 7.64542C92.9506 7.25342 92.8746 6.83342 92.8746 6.38542C92.8746 5.94542 92.9506 5.53342 93.1026 5.14942C93.2626 4.75742 93.4786 4.41742 93.7506 4.12942C94.0306 3.83342 94.3626 3.60142 94.7466 3.43342C95.1306 3.25742 95.5466 3.16942 95.9946 3.16942C96.4506 3.16942 96.8666 3.25742 97.2426 3.43342C97.6266 3.60142 97.9546 3.83342 98.2266 4.12942C98.4986 4.42542 98.7106 4.76542 98.8626 5.14942C99.0146 5.53342 99.0906 5.94142 99.0906 6.37342C99.0906 6.43742 99.0906 6.50142 99.0906 6.56542C99.0906 6.62942 99.0866 6.67342 99.0786 6.69742H93.7266C93.7506 7.03342 93.8266 7.34542 93.9546 7.63342C94.0906 7.91342 94.2626 8.15742 94.4706 8.36542C94.6786 8.57342 94.9146 8.73742 95.1786 8.85742C95.4506 8.96942 95.7386 9.02542 96.0426 9.02542C96.2426 9.02542 96.4426 8.99742 96.6426 8.94142C96.8426 8.88542 97.0266 8.80942 97.1946 8.71342C97.3626 8.61742 97.5146 8.50142 97.6506 8.36542C97.7866 8.22142 97.8906 8.06542 97.9626 7.89742L98.6706 8.08942C98.5746 8.32142 98.4386 8.53342 98.2626 8.72542C98.0866 8.90942 97.8826 9.07342 97.6506 9.21742C97.4186 9.35342 97.1626 9.45742 96.8826 9.52942C96.6026 9.60942 96.3106 9.64942 96.0066 9.64942ZM98.3106 6.07342C98.2866 5.73742 98.2066 5.43342 98.0706 5.16142C97.9426 4.88142 97.7746 4.64142 97.5666 4.44142C97.3666 4.24142 97.1306 4.08542 96.8586 3.97342C96.5946 3.86142 96.3106 3.80542 96.0066 3.80542C95.7026 3.80542 95.4146 3.86142 95.1426 3.97342C94.8706 4.08542 94.6306 4.24142 94.4226 4.44142C94.2226 4.64142 94.0586 4.88142 93.9306 5.16142C93.8106 5.44142 93.7386 5.74542 93.7146 6.07342H98.3106Z" fill="white" fill-opacity="0.45"/>
</svg>
