<svg width="45" height="45" viewBox="0 0 45 45" fill="none" xmlns="http://www.w3.org/2000/svg">
<path d="M22.5 0C18.1392 0 13.9094 1.24937 10.2672 3.61292C9.86933 3.87114 9.75621 4.40288 10.0143 4.80076C10.2726 5.19864 10.8043 5.31167 11.2022 5.05362C14.5652 2.87121 18.4719 1.71756 22.5 1.71756C33.9594 1.71756 43.2824 11.0406 43.2824 22.5C43.2824 33.9594 33.9594 43.2824 22.5 43.2824C11.0406 43.2824 1.71756 33.9594 1.71756 22.5C1.71756 16.6564 4.19933 11.0493 8.52645 7.11642C8.87739 6.79737 8.90323 6.2543 8.58428 5.90326C8.26523 5.55223 7.72216 5.5263 7.37112 5.84543C2.68673 10.1031 0 16.1735 0 22.5C0 34.9066 10.0934 45 22.5 45C34.9066 45 45 34.9066 45 22.5C45 10.0934 34.9066 0 22.5 0Z" fill="#FA7936"/>
<path d="M37.7855 12.2941C37.5219 11.9 36.9884 11.7939 36.5943 12.0578C36.2 12.3214 36.0943 12.8549 36.358 13.249C38.1913 15.9894 39.1603 19.1883 39.1603 22.5C39.1603 31.6865 31.6865 39.1603 22.5 39.1603C13.3135 39.1603 5.83969 31.6865 5.83969 22.5C5.83969 13.3135 13.3135 5.83975 22.5 5.83975C26.8823 5.83975 31.0204 7.52743 34.1518 10.5919C34.4909 10.9238 35.0347 10.9178 35.3662 10.5788C35.6981 10.2399 35.6921 9.69613 35.3531 9.36443C31.8986 5.98389 27.3341 4.12219 22.5 4.12219C12.3664 4.12219 4.12213 12.3664 4.12213 22.5C4.12213 32.6336 12.3664 40.8779 22.5 40.8779C32.6336 40.8779 40.8778 32.6336 40.8778 22.5C40.8778 18.8472 39.8085 15.3179 37.7855 12.2941Z" fill="#FA7936"/>
<path d="M22.5 9.3894C19.6699 9.3894 16.9751 10.2769 14.7068 11.9562C14.3255 12.2384 14.2453 12.7761 14.5275 13.1573C14.8099 13.5388 15.3476 13.6189 15.7286 13.3366C17.6991 11.8779 20.0406 11.107 22.5 11.107C28.7822 11.107 33.8931 16.218 33.8931 22.5C33.8931 27.7398 30.348 32.2853 25.2719 33.5537C24.8117 33.6687 24.532 34.1349 24.6469 34.5951C24.7445 34.9854 25.0947 35.2459 25.4795 35.2459C25.5484 35.2459 25.6186 35.2376 25.6885 35.2202C31.5305 33.7601 35.6107 28.5295 35.6107 22.5C35.6107 15.2707 29.7293 9.3894 22.5 9.3894Z" fill="#FA7936"/>
<path d="M15.293 31.3244C12.6326 29.149 11.1069 25.9326 11.1069 22.5C11.1069 20.1246 11.8303 17.8487 13.1991 15.9184C13.4735 15.5315 13.3822 14.9954 12.9953 14.7211C12.6085 14.4466 12.0724 14.538 11.7981 14.9249C10.2222 17.1472 9.38934 19.7667 9.38934 22.5C9.38934 26.4499 11.1448 30.1509 14.2058 32.654C14.3653 32.7845 14.5578 32.848 14.7489 32.848C14.9976 32.848 15.2444 32.7405 15.4142 32.5329C15.7144 32.1656 15.6601 31.6246 15.293 31.3244Z" fill="#FA7936"/>
<path d="M29.9428 21.6412C29.4683 21.6412 29.084 22.0256 29.084 22.5C29.084 26.1305 26.1305 29.084 22.5 29.084C18.8695 29.084 15.916 26.1305 15.916 22.5C15.916 18.8695 18.8695 15.916 22.5 15.916C22.9745 15.916 23.3588 15.5317 23.3588 15.0573C23.3588 14.5829 22.9745 14.1985 22.5 14.1985C17.9225 14.1985 14.1985 17.9225 14.1985 22.5C14.1985 27.0775 17.9225 30.8016 22.5 30.8016C27.0775 30.8016 30.8016 27.0775 30.8016 22.5C30.8016 22.0256 30.4171 21.6412 29.9428 21.6412Z" fill="#FA7936"/>
<path d="M22.5 19.0077C20.5744 19.0077 19.0077 20.5744 19.0077 22.5C19.0077 24.4256 20.5744 25.9924 22.5 25.9924C24.4256 25.9924 25.9924 24.4256 25.9924 22.5C25.9924 20.5744 24.4256 19.0077 22.5 19.0077ZM22.5 24.2748C21.5214 24.2748 20.7252 23.4787 20.7252 22.5C20.7252 21.5214 21.5214 20.7252 22.5 20.7252C23.4787 20.7252 24.2748 21.5214 24.2748 22.5C24.2748 23.4787 23.4787 24.2748 22.5 24.2748Z" fill="#FA7936"/>
</svg>
