<svg width="24" height="19" viewBox="0 0 24 19" fill="none" xmlns="http://www.w3.org/2000/svg">
<path d="M12.2017 5.26505C8.85291 5.26505 6.15178 7.33052 6.15178 9.89122C6.15178 12.4519 8.85291 14.5174 12.2017 14.5174C15.5504 14.5174 18.2516 12.4519 18.2516 9.89122C18.2516 7.33052 15.5504 5.26505 12.2017 5.26505ZM12.2017 12.8988C10.0376 12.8988 8.26845 11.55 8.26845 9.89122C8.26845 8.2324 10.0323 6.88361 12.2017 6.88361C14.371 6.88361 16.1349 8.2324 16.1349 9.89122C16.1349 11.55 14.3657 12.8988 12.2017 12.8988ZM19.9101 5.07582C19.9101 5.67573 19.2783 6.15485 18.499 6.15485C17.7145 6.15485 17.0879 5.6717 17.0879 5.07582C17.0879 4.47993 17.7198 3.99678 18.499 3.99678C19.2783 3.99678 19.9101 4.47993 19.9101 5.07582ZM23.9171 6.17096C23.8276 4.72553 23.3958 3.44518 22.011 2.3903C20.6315 1.33542 18.9571 1.00527 17.0669 0.932798C15.1187 0.848247 9.2794 0.848247 7.33122 0.932798C5.44623 1.00124 3.77185 1.3314 2.38706 2.38628C1.00227 3.44116 0.575777 4.72151 0.481001 6.16693C0.370428 7.65665 0.370428 12.1218 0.481001 13.6115C0.570512 15.0569 1.00227 16.3373 2.38706 17.3921C3.77185 18.447 5.44096 18.7772 7.33122 18.8496C9.2794 18.9342 15.1187 18.9342 17.0669 18.8496C18.9571 18.7812 20.6315 18.451 22.011 17.3921C23.3905 16.3373 23.8223 15.0569 23.9171 13.6115C24.0277 12.1218 24.0277 7.66067 23.9171 6.17096ZM21.4002 15.2099C20.9895 15.999 20.1945 16.607 19.1572 16.9251C17.6039 17.3962 13.9182 17.2875 12.2017 17.2875C10.4852 17.2875 6.79416 17.3921 5.24614 16.9251C4.21413 16.611 3.41907 16.0031 3.0031 15.2099C2.38706 14.0222 2.52922 11.2038 2.52922 9.89122C2.52922 8.57866 2.39232 5.75625 3.0031 4.57253C3.4138 3.78339 4.20887 3.17542 5.24614 2.85735C6.79942 2.38628 10.4852 2.49499 12.2017 2.49499C13.9182 2.49499 17.6092 2.3903 19.1572 2.85735C20.1892 3.1714 20.9843 3.77936 21.4002 4.57253C22.0163 5.76028 21.8741 8.57866 21.8741 9.89122C21.8741 11.2038 22.0163 14.0262 21.4002 15.2099Z" fill="#6F7A8B"/>
</svg>
