<svg width="16" height="15" viewBox="0 0 16 15" fill="none" xmlns="http://www.w3.org/2000/svg">
<path d="M8.15698 5.71406C7.80379 5.71419 7.45856 5.81905 7.16495 6.01537C6.87134 6.21169 6.64254 6.49067 6.50747 6.81701C6.3724 7.14336 6.33713 7.50244 6.40611 7.84883C6.4751 8.19522 6.64525 8.51338 6.89504 8.76309C7.14483 9.01279 7.46306 9.18281 7.80948 9.25167C8.1559 9.32053 8.51496 9.28512 8.84126 9.14993C9.16755 9.01473 9.44644 8.78583 9.64265 8.49214C9.83886 8.19846 9.94359 7.8532 9.94359 7.5C9.94323 7.02633 9.75487 6.57218 9.41987 6.23731C9.08488 5.90244 8.63065 5.71424 8.15698 5.71406ZM12.3325 4.34129C12.2416 4.11088 12.1043 3.90161 11.9292 3.72646C11.754 3.55131 11.5448 3.41402 11.3143 3.3231C10.6112 3.04554 8.93712 3.10781 8.15698 3.10781C7.37685 3.10781 5.70442 3.04319 4.99928 3.3231C4.76887 3.41402 4.5596 3.55131 4.38445 3.72646C4.2093 3.90161 4.07201 4.11088 3.98109 4.34129C3.70386 5.04442 3.7658 6.7202 3.7658 7.49967C3.7658 8.27913 3.70386 9.9529 3.98243 10.6584C4.07335 10.8888 4.21064 11.0981 4.38579 11.2732C4.56094 11.4484 4.77021 11.5856 5.00062 11.6766C5.70375 11.9541 7.37785 11.8919 8.15832 11.8919C8.93879 11.8919 10.6106 11.9565 11.3157 11.6766C11.5461 11.5856 11.7554 11.4484 11.9305 11.2732C12.1057 11.0981 12.243 10.8888 12.3339 10.6584C12.6135 9.95525 12.5492 8.27946 12.5492 7.5C12.5492 6.72054 12.6135 5.0471 12.3339 4.34163L12.3325 4.34129ZM8.15698 10.2455C7.61397 10.2455 7.08315 10.0845 6.63164 9.78283C6.18014 9.48115 5.82824 9.05235 5.62044 8.55067C5.41263 8.04899 5.35826 7.49695 5.4642 6.96437C5.57014 6.43179 5.83162 5.94258 6.2156 5.55861C6.59957 5.17464 7.08877 4.91316 7.62135 4.80722C8.15394 4.70128 8.70597 4.75565 9.20765 4.96346C9.70933 5.17126 10.1381 5.52316 10.4398 5.97466C10.7415 6.42616 10.9025 6.95698 10.9025 7.5C10.903 7.86067 10.8322 8.21789 10.6944 8.55119C10.5566 8.88449 10.3544 9.18734 10.0994 9.44237C9.84432 9.6974 9.54148 9.89962 9.20817 10.0374C8.87487 10.1753 8.51765 10.246 8.15698 10.2455ZM11.0157 5.28013C10.8889 5.2802 10.765 5.24267 10.6596 5.17229C10.5541 5.10192 10.4719 5.00185 10.4234 4.88476C10.3748 4.76767 10.3621 4.6388 10.3868 4.51447C10.4115 4.39013 10.4725 4.27591 10.5621 4.18626C10.6517 4.0966 10.7659 4.03553 10.8902 4.01078C11.0145 3.98602 11.1434 3.99869 11.2605 4.04719C11.3776 4.09568 11.4777 4.17782 11.5482 4.28322C11.6186 4.38861 11.6562 4.51252 11.6562 4.63929C11.6566 4.72346 11.6403 4.80688 11.6083 4.88476C11.5764 4.96264 11.5293 5.03344 11.47 5.0931C11.4106 5.15276 11.34 5.20012 11.2623 5.23244C11.1845 5.26477 11.1012 5.28143 11.017 5.28147L11.0157 5.28013ZM14.0498 0H2.26413C1.83788 0 1.4291 0.169324 1.1277 0.470721C0.826306 0.772119 0.656982 1.1809 0.656982 1.60714L0.656982 13.3929C0.656982 13.8191 0.826306 14.2279 1.1277 14.5293C1.4291 14.8307 1.83788 15 2.26413 15H14.0498C14.4761 15 14.8849 14.8307 15.1863 14.5293C15.4877 14.2279 15.657 13.8191 15.657 13.3929V1.60714C15.657 1.1809 15.4877 0.772119 15.1863 0.470721C14.8849 0.169324 14.4761 0 14.0498 0ZM13.4766 9.70982C13.4334 10.568 13.2376 11.3283 12.6111 11.9531C11.9847 12.5779 11.225 12.7778 10.3678 12.8186C9.48354 12.8685 6.83243 12.8685 5.94817 12.8186C5.09002 12.7754 4.33232 12.5792 3.70486 11.9531C3.07741 11.327 2.8802 10.5663 2.83935 9.70982C2.78946 8.82522 2.78946 6.17377 2.83935 5.29018C2.88254 4.43203 3.07607 3.67165 3.70486 3.04688C4.33366 2.4221 5.09337 2.22455 5.94817 2.18371C6.83243 2.13382 9.48354 2.13382 10.3678 2.18371C11.226 2.2269 11.986 2.4231 12.6111 3.04922C13.2362 3.67533 13.4358 4.43605 13.4766 5.2942C13.5265 6.17545 13.5265 8.82455 13.4766 9.70982Z" fill="white" fill-opacity="0.75"/>
</svg>
