<svg width="75" height="45" viewBox="0 0 75 45" fill="none" xmlns="http://www.w3.org/2000/svg">
<path d="M55.8785 44.8629C53.5763 44.4427 50.9769 43.3976 48.8056 42.0192L48.0872 41.5631L50.1291 40.0571C53.8293 37.328 56.3558 35.1637 59.3139 32.1892C62.238 29.2485 64.5213 26.4951 66.6362 23.359C67.8014 21.6314 69.5421 18.7517 69.4212 18.7517C69.3927 18.7517 68.9324 19.3594 68.3983 20.1021C62.759 27.9454 54.6787 35.1418 47.4324 38.7753C46.6243 39.1805 45.9375 39.4711 45.9062 39.4212C45.5704 38.885 44.7401 35.9661 44.4349 34.2484C44.1227 32.4918 44.0926 29.659 44.3713 28.2768C44.9066 25.6219 45.998 23.731 48.0226 21.9504C50.4665 19.8011 53.6085 18.2629 58.7772 16.6859C64.8438 14.8349 66.7636 14.0632 69.0819 12.5445C70.7254 11.4677 72.4271 9.7742 73.4513 8.19595C73.7638 7.71443 74.0494 7.31882 74.086 7.31675C74.2006 7.31037 74.6044 9.42309 74.7635 10.8612C74.9992 12.9928 75.0579 15.1246 74.9402 17.2825C74.2549 29.8502 69.7343 40.2349 63.4715 43.6292C62.3543 44.2346 61.1384 44.6726 60.0606 44.8581C58.9423 45.0506 56.9206 45.0528 55.8794 44.8628L55.8785 44.8629ZM29.179 44.6997C24.5901 44.2938 20.7679 42.7425 17.5791 39.991C14.1384 37.0228 11.3006 32.0681 10.2155 27.1342C9.73348 24.9421 9.57221 23.2836 9.4026 18.7727C9.31467 16.4346 9.17386 14.1499 9.07743 13.4964C8.31802 8.35061 6.02122 5.06902 0.7814 1.64451L-0.00158691 1.1327L0.62039 0.940284C1.57284 0.645622 3.58603 0.246106 4.82685 0.105488C6.70986 -0.107879 11.251 0.0296836 13.5327 0.369217C21.8657 1.60914 30.4701 5.04993 37.1633 9.81898C40.9506 12.5174 44.2913 15.8929 46.204 18.9534L46.6814 19.7175L45.3688 21.0089C43.935 22.4195 43.3467 23.1985 42.7233 24.5119C41.36 27.384 41.3446 31.1032 42.6791 35.1643C42.8793 35.7733 43.0279 36.2866 43.0094 36.3048C42.991 36.3229 42.8158 36.0392 42.6201 35.674C38.6885 28.3373 33.8306 22.4248 27.9167 17.7786C26.4083 16.5936 23.0696 14.3033 22.8506 14.3033C22.8213 14.3033 23.5506 15.0551 24.4714 15.9738C28.9258 20.4185 32.4209 24.7722 35.2478 29.3962C36.2692 31.0671 37.9236 34.3558 38.578 36.0159C39.5033 38.3631 40.2466 41.2084 40.2919 42.5764L40.3145 43.2586L39.3485 43.5572C36.3987 44.4691 32.0717 44.955 29.1799 44.6992L29.179 44.6997ZM43.1008 36.6448C43.0618 36.5827 43.053 36.5091 43.0812 36.4813C43.1093 36.4536 43.1609 36.5044 43.1959 36.5943C43.2685 36.781 43.2066 36.8138 43.1008 36.6448Z" fill="#FA7936"/>
</svg>
