<svg width="122" height="30" viewBox="0 0 122 30" fill="none" xmlns="http://www.w3.org/2000/svg">
<path d="M25.708 21.0093H26.416L29.956 29.5293H29.068L27.964 26.8653H24.136L23.044 29.5293H22.144L25.708 21.0093ZM27.772 26.2053L26.056 21.9933L24.316 26.2053H27.772ZM37.0094 23.9973C36.4574 24.0133 35.9774 24.1653 35.5694 24.4533C35.1614 24.7413 34.8734 25.1373 34.7054 25.6413V29.5293H33.8894V23.2773H34.6574V24.7773C34.8894 24.2973 35.2014 23.9213 35.5934 23.6493C35.9854 23.3773 36.4054 23.2413 36.8534 23.2413C36.9174 23.2413 36.9694 23.2453 37.0094 23.2533V23.9973ZM40.228 26.3853C40.228 25.9453 40.304 25.5293 40.456 25.1373C40.608 24.7453 40.82 24.4053 41.092 24.1173C41.372 23.8213 41.704 23.5893 42.088 23.4213C42.472 23.2533 42.896 23.1693 43.36 23.1693C43.952 23.1693 44.468 23.3053 44.908 23.5773C45.348 23.8413 45.68 24.2013 45.904 24.6573L45.112 24.9093C44.936 24.5893 44.688 24.3413 44.368 24.1653C44.056 23.9813 43.708 23.8893 43.324 23.8893C43.004 23.8893 42.704 23.9533 42.424 24.0813C42.152 24.2093 41.912 24.3853 41.704 24.6093C41.504 24.8253 41.344 25.0853 41.224 25.3893C41.112 25.6933 41.056 26.0253 41.056 26.3853C41.056 26.7373 41.116 27.0693 41.236 27.3813C41.356 27.6933 41.52 27.9653 41.728 28.1973C41.936 28.4213 42.176 28.6013 42.448 28.7373C42.728 28.8653 43.024 28.9293 43.336 28.9293C43.536 28.9293 43.732 28.9013 43.924 28.8453C44.124 28.7893 44.308 28.7133 44.476 28.6173C44.644 28.5133 44.788 28.3973 44.908 28.2693C45.028 28.1413 45.112 28.0053 45.16 27.8613L45.964 28.1013C45.876 28.3253 45.748 28.5333 45.58 28.7253C45.412 28.9093 45.212 29.0733 44.98 29.2173C44.756 29.3533 44.504 29.4573 44.224 29.5293C43.952 29.6093 43.668 29.6493 43.372 29.6493C42.916 29.6493 42.496 29.5653 42.112 29.3973C41.728 29.2213 41.396 28.9853 41.116 28.6893C40.836 28.3853 40.616 28.0373 40.456 27.6453C40.304 27.2533 40.228 26.8333 40.228 26.3853ZM55.3819 29.5293H54.5659V26.0373C54.5659 25.3253 54.4419 24.7933 54.1939 24.4413C53.9539 24.0893 53.5979 23.9133 53.1259 23.9133C52.8939 23.9133 52.6619 23.9613 52.4299 24.0573C52.2059 24.1453 51.9939 24.2693 51.7939 24.4293C51.5939 24.5893 51.4179 24.7773 51.2659 24.9933C51.1219 25.2093 51.0139 25.4453 50.9419 25.7013V29.5293H50.1259V20.7693H50.9419V24.6933C51.1899 24.2213 51.5339 23.8493 51.9739 23.5773C52.4139 23.3053 52.8899 23.1693 53.4019 23.1693C53.7619 23.1693 54.0659 23.2373 54.3139 23.3733C54.5619 23.5013 54.7659 23.6853 54.9259 23.9253C55.0859 24.1573 55.2019 24.4413 55.2739 24.7773C55.3459 25.1053 55.3819 25.4693 55.3819 25.8693V29.5293ZM60.002 29.5293V23.2773H60.818V29.5293H60.002ZM60.002 21.9693V20.7693H60.818V21.9693H60.002ZM68.4953 29.2293C68.4473 29.2533 68.3753 29.2853 68.2793 29.3253C68.1913 29.3653 68.0873 29.4053 67.9673 29.4453C67.8473 29.4853 67.7113 29.5213 67.5593 29.5533C67.4073 29.5853 67.2473 29.6013 67.0793 29.6013C66.9033 29.6013 66.7353 29.5773 66.5753 29.5293C66.4153 29.4813 66.2753 29.4093 66.1553 29.3133C66.0353 29.2093 65.9393 29.0813 65.8673 28.9293C65.7953 28.7773 65.7593 28.6013 65.7593 28.4013V23.9253H64.8953V23.2773H65.7593V21.1653H66.5753V23.2773H68.0153V23.9253H66.5753V28.1733C66.5913 28.4053 66.6713 28.5773 66.8153 28.6893C66.9673 28.7933 67.1393 28.8453 67.3313 28.8453C67.5633 28.8453 67.7673 28.8093 67.9433 28.7373C68.1193 28.6573 68.2313 28.6013 68.2793 28.5693L68.4953 29.2293ZM74.9425 29.6493C74.4865 29.6493 74.0665 29.5653 73.6825 29.3973C73.3065 29.2213 72.9785 28.9853 72.6985 28.6893C72.4185 28.3853 72.1985 28.0373 72.0385 27.6453C71.8865 27.2533 71.8105 26.8333 71.8105 26.3853C71.8105 25.9453 71.8865 25.5333 72.0385 25.1493C72.1985 24.7573 72.4145 24.4173 72.6865 24.1293C72.9665 23.8333 73.2985 23.6013 73.6825 23.4333C74.0665 23.2573 74.4825 23.1693 74.9305 23.1693C75.3865 23.1693 75.8025 23.2573 76.1785 23.4333C76.5625 23.6013 76.8905 23.8333 77.1625 24.1293C77.4345 24.4253 77.6465 24.7653 77.7985 25.1493C77.9505 25.5333 78.0265 25.9413 78.0265 26.3733C78.0265 26.4373 78.0265 26.5013 78.0265 26.5653C78.0265 26.6293 78.0225 26.6733 78.0145 26.6973H72.6625C72.6865 27.0333 72.7625 27.3453 72.8905 27.6333C73.0265 27.9133 73.1985 28.1573 73.4065 28.3653C73.6145 28.5733 73.8505 28.7373 74.1145 28.8573C74.3865 28.9693 74.6745 29.0253 74.9785 29.0253C75.1785 29.0253 75.3785 28.9973 75.5785 28.9413C75.7785 28.8853 75.9625 28.8093 76.1305 28.7133C76.2985 28.6173 76.4505 28.5013 76.5865 28.3653C76.7225 28.2213 76.8265 28.0653 76.8985 27.8973L77.6065 28.0893C77.5105 28.3213 77.3745 28.5333 77.1985 28.7253C77.0225 28.9093 76.8185 29.0733 76.5865 29.2173C76.3545 29.3533 76.0985 29.4573 75.8185 29.5293C75.5385 29.6093 75.2465 29.6493 74.9425 29.6493ZM77.2465 26.0733C77.2225 25.7373 77.1425 25.4333 77.0065 25.1613C76.8785 24.8813 76.7105 24.6413 76.5025 24.4413C76.3025 24.2413 76.0665 24.0853 75.7945 23.9733C75.5305 23.8613 75.2465 23.8053 74.9425 23.8053C74.6385 23.8053 74.3505 23.8613 74.0785 23.9733C73.8065 24.0853 73.5665 24.2413 73.3585 24.4413C73.1585 24.6413 72.9945 24.8813 72.8665 25.1613C72.7465 25.4413 72.6745 25.7453 72.6505 26.0733H77.2465ZM81.7335 26.3853C81.7335 25.9453 81.8095 25.5293 81.9615 25.1373C82.1135 24.7453 82.3255 24.4053 82.5975 24.1173C82.8775 23.8213 83.2095 23.5893 83.5935 23.4213C83.9775 23.2533 84.4015 23.1693 84.8655 23.1693C85.4575 23.1693 85.9735 23.3053 86.4135 23.5773C86.8535 23.8413 87.1855 24.2013 87.4095 24.6573L86.6175 24.9093C86.4415 24.5893 86.1935 24.3413 85.8735 24.1653C85.5615 23.9813 85.2135 23.8893 84.8295 23.8893C84.5095 23.8893 84.2095 23.9533 83.9295 24.0813C83.6575 24.2093 83.4175 24.3853 83.2095 24.6093C83.0095 24.8253 82.8495 25.0853 82.7295 25.3893C82.6175 25.6933 82.5615 26.0253 82.5615 26.3853C82.5615 26.7373 82.6215 27.0693 82.7415 27.3813C82.8615 27.6933 83.0255 27.9653 83.2335 28.1973C83.4415 28.4213 83.6815 28.6013 83.9535 28.7373C84.2335 28.8653 84.5295 28.9293 84.8415 28.9293C85.0415 28.9293 85.2375 28.9013 85.4295 28.8453C85.6295 28.7893 85.8135 28.7133 85.9815 28.6173C86.1495 28.5133 86.2935 28.3973 86.4135 28.2693C86.5335 28.1413 86.6175 28.0053 86.6655 27.8613L87.4695 28.1013C87.3815 28.3253 87.2535 28.5333 87.0855 28.7253C86.9175 28.9093 86.7175 29.0733 86.4855 29.2173C86.2615 29.3533 86.0095 29.4573 85.7295 29.5293C85.4575 29.6093 85.1735 29.6493 84.8775 29.6493C84.4215 29.6493 84.0015 29.5653 83.6175 29.3973C83.2335 29.2213 82.9015 28.9853 82.6215 28.6893C82.3415 28.3853 82.1215 28.0373 81.9615 27.6453C81.8095 27.2533 81.7335 26.8333 81.7335 26.3853ZM94.6314 29.2293C94.5834 29.2533 94.5114 29.2853 94.4154 29.3253C94.3274 29.3653 94.2234 29.4053 94.1034 29.4453C93.9834 29.4853 93.8474 29.5213 93.6954 29.5533C93.5434 29.5853 93.3834 29.6013 93.2154 29.6013C93.0394 29.6013 92.8714 29.5773 92.7114 29.5293C92.5514 29.4813 92.4114 29.4093 92.2914 29.3133C92.1714 29.2093 92.0754 29.0813 92.0034 28.9293C91.9314 28.7773 91.8954 28.6013 91.8954 28.4013V23.9253H91.0314V23.2773H91.8954V21.1653H92.7114V23.2773H94.1514V23.9253H92.7114V28.1733C92.7274 28.4053 92.8074 28.5773 92.9514 28.6893C93.1034 28.7933 93.2754 28.8453 93.4674 28.8453C93.6994 28.8453 93.9034 28.8093 94.0794 28.7373C94.2554 28.6573 94.3674 28.6013 94.4154 28.5693L94.6314 29.2293ZM100.487 29.6493C99.8069 29.6493 99.2989 29.4253 98.9629 28.9773C98.6349 28.5213 98.4709 27.8453 98.4709 26.9493V23.2773H99.2869V26.8053C99.2869 28.2213 99.7709 28.9293 100.739 28.9293C100.979 28.9293 101.215 28.8893 101.447 28.8093C101.679 28.7293 101.891 28.6133 102.083 28.4613C102.283 28.3093 102.459 28.1293 102.611 27.9213C102.771 27.7133 102.899 27.4773 102.995 27.2133V23.2773H103.811V28.4733C103.811 28.6973 103.907 28.8093 104.099 28.8093V29.5293C104.003 29.5453 103.923 29.5533 103.859 29.5533C103.803 29.5533 103.763 29.5533 103.739 29.5533C103.547 29.5453 103.391 29.4773 103.271 29.3493C103.151 29.2213 103.091 29.0493 103.091 28.8333V28.1133C102.819 28.6013 102.447 28.9813 101.975 29.2533C101.511 29.5173 101.015 29.6493 100.487 29.6493ZM111.656 23.9973C111.104 24.0133 110.624 24.1653 110.216 24.4533C109.808 24.7413 109.52 25.1373 109.352 25.6413V29.5293H108.536V23.2773H109.304V24.7773C109.536 24.2973 109.848 23.9213 110.24 23.6493C110.632 23.3773 111.052 23.2413 111.5 23.2413C111.564 23.2413 111.616 23.2453 111.656 23.2533V23.9973ZM118.007 29.6493C117.551 29.6493 117.131 29.5653 116.747 29.3973C116.371 29.2213 116.043 28.9853 115.763 28.6893C115.483 28.3853 115.263 28.0373 115.103 27.6453C114.951 27.2533 114.875 26.8333 114.875 26.3853C114.875 25.9453 114.951 25.5333 115.103 25.1493C115.263 24.7573 115.479 24.4173 115.751 24.1293C116.031 23.8333 116.363 23.6013 116.747 23.4333C117.131 23.2573 117.547 23.1693 117.995 23.1693C118.451 23.1693 118.867 23.2573 119.243 23.4333C119.627 23.6013 119.955 23.8333 120.227 24.1293C120.499 24.4253 120.711 24.7653 120.863 25.1493C121.015 25.5333 121.091 25.9413 121.091 26.3733C121.091 26.4373 121.091 26.5013 121.091 26.5653C121.091 26.6293 121.087 26.6733 121.079 26.6973H115.727C115.751 27.0333 115.827 27.3453 115.955 27.6333C116.091 27.9133 116.263 28.1573 116.471 28.3653C116.679 28.5733 116.915 28.7373 117.179 28.8573C117.451 28.9693 117.739 29.0253 118.043 29.0253C118.243 29.0253 118.443 28.9973 118.643 28.9413C118.843 28.8853 119.027 28.8093 119.195 28.7133C119.363 28.6173 119.515 28.5013 119.651 28.3653C119.787 28.2213 119.891 28.0653 119.963 27.8973L120.671 28.0893C120.575 28.3213 120.439 28.5333 120.263 28.7253C120.087 28.9093 119.883 29.0733 119.651 29.2173C119.419 29.3533 119.163 29.4573 118.883 29.5293C118.603 29.6093 118.311 29.6493 118.007 29.6493ZM120.311 26.0733C120.287 25.7373 120.207 25.4333 120.071 25.1613C119.943 24.8813 119.775 24.6413 119.567 24.4413C119.367 24.2413 119.131 24.0853 118.859 23.9733C118.595 23.8613 118.311 23.8053 118.007 23.8053C117.703 23.8053 117.415 23.8613 117.143 23.9733C116.871 24.0853 116.631 24.2413 116.423 24.4413C116.223 24.6413 116.059 24.8813 115.931 25.1613C115.811 25.4413 115.739 25.7453 115.715 26.0733H120.311Z" fill="white" fill-opacity="0.45"/>
<path fill-rule="evenodd" clip-rule="evenodd" d="M10 1.76465H0V9.99994C0 12.7614 2.23858 14.9999 5 14.9999H15V6.76465C15 4.00323 12.7614 1.76465 10 1.76465ZM10 3.52935H2V10.2352C2 11.8921 3.34315 13.2352 5 13.2352H13V6.52935C13 4.8725 11.6569 3.52935 10 3.52935Z" fill="#6F7A8B"/>
<path d="M27.423 3.964H29.582L30.942 7.959L32.302 3.964H34.478L32.421 9.455L33.951 13.314L37.368 3.93H39.918L35.005 16H33.033L30.942 10.934L28.851 16H26.879L22 3.93H24.516L27.95 13.314L29.446 9.455L27.423 3.964ZM45.8572 16.085C44.9732 16.085 44.1686 15.915 43.4432 15.575C42.7292 15.2237 42.1116 14.7647 41.5902 14.198C41.0802 13.62 40.6836 12.9627 40.4002 12.226C40.1169 11.4893 39.9752 10.7357 39.9752 9.965C39.9752 9.16033 40.1226 8.38967 40.4172 7.653C40.7232 6.91633 41.1369 6.26467 41.6582 5.698C42.1909 5.13133 42.8199 4.68367 43.5452 4.355C44.2706 4.015 45.0582 3.845 45.9082 3.845C46.7809 3.845 47.5742 4.02633 48.2882 4.389C49.0136 4.74033 49.6312 5.205 50.1412 5.783C50.6512 6.361 51.0479 7.01833 51.3312 7.755C51.6146 8.49167 51.7562 9.23967 51.7562 9.999C51.7562 10.8037 51.6089 11.5743 51.3142 12.311C51.0196 13.0363 50.6116 13.6823 50.0902 14.249C49.5689 14.8043 48.9456 15.252 48.2202 15.592C47.4949 15.9207 46.7072 16.085 45.8572 16.085ZM42.3552 9.965C42.3552 10.4863 42.4346 10.9907 42.5932 11.478C42.7519 11.9653 42.9786 12.396 43.2732 12.77C43.5792 13.144 43.9476 13.4443 44.3782 13.671C44.8202 13.8977 45.3189 14.011 45.8742 14.011C46.4409 14.011 46.9396 13.8977 47.3702 13.671C47.8122 13.433 48.1806 13.1213 48.4752 12.736C48.7812 12.3507 49.0079 11.92 49.1552 11.444C49.3139 10.9567 49.3932 10.4637 49.3932 9.965C49.3932 9.44367 49.3082 8.93933 49.1382 8.452C48.9796 7.96467 48.7472 7.534 48.4412 7.16C48.1466 6.786 47.7782 6.49133 47.3362 6.276C46.9056 6.04933 46.4182 5.936 45.8742 5.936C45.3076 5.936 44.8032 6.055 44.3612 6.293C43.9192 6.51967 43.5509 6.82567 43.2562 7.211C42.9616 7.585 42.7349 8.01567 42.5762 8.503C42.4289 8.979 42.3552 9.46633 42.3552 9.965ZM58.7069 16.085C57.8229 16.085 57.0182 15.915 56.2929 15.575C55.5789 15.2237 54.9612 14.7647 54.4399 14.198C53.9299 13.62 53.5332 12.9627 53.2499 12.226C52.9665 11.4893 52.8249 10.7357 52.8249 9.965C52.8249 9.16033 52.9722 8.38967 53.2669 7.653C53.5729 6.91633 53.9865 6.26467 54.5079 5.698C55.0405 5.13133 55.6695 4.68367 56.3949 4.355C57.1202 4.015 57.9079 3.845 58.7579 3.845C59.6305 3.845 60.4239 4.02633 61.1379 4.389C61.8632 4.74033 62.4809 5.205 62.9909 5.783C63.5009 6.361 63.8975 7.01833 64.1809 7.755C64.4642 8.49167 64.6059 9.23967 64.6059 9.999C64.6059 10.8037 64.4585 11.5743 64.1639 12.311C63.8692 13.0363 63.4612 13.6823 62.9399 14.249C62.4185 14.8043 61.7952 15.252 61.0699 15.592C60.3445 15.9207 59.5569 16.085 58.7069 16.085ZM55.2049 9.965C55.2049 10.4863 55.2842 10.9907 55.4429 11.478C55.6015 11.9653 55.8282 12.396 56.1229 12.77C56.4289 13.144 56.7972 13.4443 57.2279 13.671C57.6699 13.8977 58.1685 14.011 58.7239 14.011C59.2905 14.011 59.7892 13.8977 60.2199 13.671C60.6619 13.433 61.0302 13.1213 61.3249 12.736C61.6309 12.3507 61.8575 11.92 62.0049 11.444C62.1635 10.9567 62.2429 10.4637 62.2429 9.965C62.2429 9.44367 62.1579 8.93933 61.9879 8.452C61.8292 7.96467 61.5969 7.534 61.2909 7.16C60.9962 6.786 60.6279 6.49133 60.1859 6.276C59.7552 6.04933 59.2679 5.936 58.7239 5.936C58.1572 5.936 57.6529 6.055 57.2109 6.293C56.7689 6.51967 56.4005 6.82567 56.1059 7.211C55.8112 7.585 55.5845 8.01567 55.4259 8.503C55.2785 8.979 55.2049 9.46633 55.2049 9.965ZM66.4055 16V3.93H70.7915C71.7775 3.93 72.6388 4.08867 73.3755 4.406C74.1235 4.72333 74.7468 5.154 75.2455 5.698C75.7441 6.242 76.1181 6.88233 76.3675 7.619C76.6168 8.34433 76.7415 9.12067 76.7415 9.948C76.7415 10.866 76.5998 11.699 76.3165 12.447C76.0445 13.1837 75.6478 13.8183 75.1265 14.351C74.6051 14.8723 73.9761 15.2803 73.2395 15.575C72.5141 15.8583 71.6981 16 70.7915 16H66.4055ZM74.3785 9.948C74.3785 9.37 74.2991 8.83733 74.1405 8.35C73.9818 7.86267 73.7495 7.44333 73.4435 7.092C73.1375 6.74067 72.7578 6.46867 72.3045 6.276C71.8625 6.08333 71.3581 5.987 70.7915 5.987H68.7515V13.943H70.7915C71.3695 13.943 71.8795 13.841 72.3215 13.637C72.7748 13.433 73.1488 13.1553 73.4435 12.804C73.7495 12.4413 73.9818 12.0163 74.1405 11.529C74.2991 11.0417 74.3785 10.5147 74.3785 9.948ZM87.037 5.987H83.178V16H80.849V5.987H76.99V3.93H87.037V5.987ZM96.9163 13.943V16H88.5353V3.93H96.7633V5.987H90.8813V8.894H95.9643V10.798H90.8813V13.943H96.9163ZM97.7653 9.88C97.7653 9.14333 97.8956 8.418 98.1563 7.704C98.4283 6.97867 98.8193 6.33267 99.3293 5.766C99.8393 5.19933 100.463 4.74033 101.199 4.389C101.936 4.03767 102.775 3.862 103.715 3.862C104.826 3.862 105.784 4.10567 106.588 4.593C107.404 5.08033 108.011 5.715 108.407 6.497L106.605 7.738C106.447 7.398 106.254 7.11467 106.027 6.888C105.801 6.65 105.557 6.463 105.296 6.327C105.036 6.191 104.764 6.09467 104.48 6.038C104.197 5.97 103.919 5.936 103.647 5.936C103.058 5.936 102.542 6.055 102.1 6.293C101.67 6.531 101.307 6.84267 101.012 7.228C100.729 7.602 100.514 8.03267 100.366 8.52C100.219 8.996 100.145 9.472 100.145 9.948C100.145 10.4807 100.23 10.9963 100.4 11.495C100.57 11.9823 100.808 12.413 101.114 12.787C101.432 13.161 101.806 13.4613 102.236 13.688C102.678 13.9147 103.16 14.028 103.681 14.028C103.953 14.028 104.237 13.994 104.531 13.926C104.826 13.858 105.104 13.7503 105.364 13.603C105.636 13.4557 105.886 13.2687 106.112 13.042C106.339 12.804 106.52 12.5207 106.656 12.192L108.577 13.297C108.385 13.7503 108.107 14.1527 107.744 14.504C107.393 14.844 106.991 15.133 106.537 15.371C106.095 15.609 105.619 15.7903 105.109 15.915C104.599 16.0397 104.101 16.102 103.613 16.102C102.752 16.102 101.964 15.9207 101.25 15.558C100.536 15.1953 99.9186 14.725 99.3973 14.147C98.8873 13.5577 98.4849 12.8947 98.1903 12.158C97.9069 11.41 97.7653 10.6507 97.7653 9.88ZM120.3 3.93V16H117.971V10.849H112.497V16H110.151V3.93H112.497V8.809H117.971V3.93H120.3Z" fill="#6F7A8B"/>
</svg>
