<svg width="50" height="50" viewBox="0 0 50 50" fill="none" xmlns="http://www.w3.org/2000/svg">
<path d="M0 0H45C47.7614 0 50 2.23858 50 5V50H5C2.23858 50 0 47.7614 0 45V0Z" fill="#FA7936"/>
<path d="M25 35.9998L25 35.2498L25 35.9998ZM32.4004 31.5502C32.1516 31.8814 32.2183 32.3515 32.5495 32.6004C32.8807 32.8492 33.3508 32.7824 33.5996 32.4512L32.4004 31.5502ZM29.3003 35.8549C29.6798 35.6891 29.8531 35.247 29.6873 34.8674C29.5214 34.4878 29.0793 34.3146 28.6997 34.4804L29.3003 35.8549ZM35.75 25.9998C35.75 20.0627 30.9371 15.2498 25 15.2498L25 16.7498C30.1086 16.7498 34.25 20.8911 34.25 25.9998L35.75 25.9998ZM14.25 25.9998C14.25 31.9368 19.0629 36.7498 25 36.7498L25 35.2498C19.8914 35.2498 15.75 31.1084 15.75 25.9998L14.25 25.9998ZM15.75 25.9998C15.75 20.8911 19.8914 16.7498 25 16.7498L25 15.2498C19.0629 15.2498 14.25 20.0627 14.25 25.9998L15.75 25.9998ZM33.5996 32.4512C34.9497 30.6543 35.75 28.4194 35.75 25.9998L34.25 25.9998C34.25 28.0834 33.562 30.0042 32.4004 31.5502L33.5996 32.4512ZM25 36.7498C26.5275 36.7498 27.9824 36.4307 29.3003 35.8549L28.6997 34.4804C27.5677 34.975 26.3169 35.2498 25 35.2498L25 36.7498Z" fill="#FAFAFA"/>
<path d="M21.7999 27.3L24.3171 24.5892C24.7128 24.1631 25.3871 24.1631 25.7827 24.5892L28.2999 27.3" stroke="#FAFAFA" stroke-width="1.5" stroke-linecap="round"/>
</svg>
