<svg width="16" height="17" viewBox="0 0 16 17" fill="none" xmlns="http://www.w3.org/2000/svg">
<path d="M14.1151 4.2367C14.1246 4.42263 14.1246 4.6086 14.1246 4.79453C14.1246 10.4656 11.0314 17 5.37779 17C3.63603 17 2.01803 16.2961 0.656982 15.0742C0.904453 15.1141 1.14237 15.1273 1.39937 15.1273C2.83652 15.1273 4.15951 14.45 5.21599 13.2946C3.86446 13.2547 2.73185 12.0195 2.34161 10.3195C2.53198 10.3593 2.72232 10.3859 2.92222 10.3859C3.19822 10.3859 3.47426 10.3328 3.73122 10.2399C2.3226 9.84138 1.26609 8.11484 1.26609 6.02968V5.97657C1.67534 6.29533 2.15127 6.49454 2.65567 6.52107C1.82763 5.75075 1.28514 4.43592 1.28514 2.94841C1.28514 2.15155 1.43739 1.42108 1.70391 0.783574C3.21724 3.3867 5.49199 5.08667 8.04272 5.27264C7.99515 4.95389 7.96658 4.62189 7.96658 4.28985C7.96658 1.92576 9.33715 0 11.0408 0C11.926 0 12.7254 0.517968 13.287 1.35469C13.9818 1.16876 14.648 0.810147 15.2382 0.318752C15.0097 1.31487 14.5243 2.15159 13.8866 2.6828C14.5053 2.58988 15.1049 2.35076 15.6569 2.01876C15.2382 2.86873 14.7147 3.62573 14.1151 4.2367Z" fill="white" fill-opacity="0.75"/>
</svg>
