<svg width="28" height="18" viewBox="0 0 28 18" fill="none" xmlns="http://www.w3.org/2000/svg">
<path d="M25.2185 4.74745C25.2357 4.93291 25.2357 5.11841 25.2357 5.30387C25.2357 10.9606 19.6648 17.4784 9.48304 17.4784C6.34621 17.4784 3.43226 16.7763 0.981079 15.5575C1.42676 15.5973 1.85525 15.6105 2.31808 15.6105C4.90633 15.6105 7.28897 14.9349 9.19163 13.7824C6.7576 13.7426 4.71781 12.5106 4.01502 10.8149C4.35787 10.8546 4.70066 10.8811 5.06066 10.8811C5.55773 10.8811 6.05486 10.8281 6.51764 10.7354C3.98077 10.3379 2.07806 8.61576 2.07806 6.53589V6.48292C2.8151 6.80086 3.67222 6.99957 4.58063 7.02604C3.08936 6.25766 2.11236 4.94617 2.11236 3.46242C2.11236 2.66758 2.38656 1.93896 2.86654 1.30307C5.59198 3.8996 9.68871 5.59527 14.2825 5.78077C14.1968 5.46282 14.1453 5.13166 14.1453 4.80047C14.1453 2.44237 16.6137 0.521484 19.6819 0.521484C21.276 0.521484 22.7158 1.03814 23.7272 1.87274C24.9784 1.68728 26.1783 1.32958 27.2411 0.839429C26.8297 1.83302 25.9555 2.66762 24.8071 3.19749C25.9212 3.1048 27.0011 2.86629 27.9953 2.53513C27.2412 3.38295 26.2984 4.13803 25.2185 4.74745Z" fill="#6F7A8B"/>
</svg>
