<svg width="16" height="13" viewBox="0 0 16 13" fill="none" xmlns="http://www.w3.org/2000/svg">
<path d="M15.3151 1.31375C15.4182 0.845 15.3151 0.5 14.8195 0.5H13.1793C12.7616 0.5 12.5695 0.79625 12.4665 1.12625C12.4665 1.12625 11.6311 3.8675 10.4504 5.645C10.0689 6.15875 9.8935 6.32375 9.68466 6.32375C9.58163 6.32375 9.42291 6.15875 9.42291 5.69V1.31375C9.42291 0.75125 9.30595 0.5 8.96066 0.5H6.38212C6.12037 0.5 5.96443 0.7625 5.96443 1.00625C5.96443 1.53875 6.55477 1.6625 6.61603 3.1625V6.4175C6.61603 7.13 6.52135 7.26125 6.31251 7.26125C5.75559 7.26125 4.40227 4.50875 3.60031 1.35875C3.4388 0.7475 3.28008 0.5 2.8596 0.5H1.21947C0.751659 0.5 0.656982 0.79625 0.656982 1.12625C0.656982 1.71125 1.2139 4.6175 3.24945 8.4575C4.60555 11.0788 6.51578 12.5 8.25337 12.5C9.2976 12.5 9.42569 12.185 9.42569 11.6413C9.42569 9.13625 9.33101 8.9 9.85452 8.9C10.0968 8.9 10.5145 9.065 11.4891 10.3288C12.6029 11.8288 12.7867 12.5 13.4105 12.5H15.0506C15.5184 12.5 15.7551 12.185 15.6186 11.5625C15.3068 10.2538 13.1988 7.56125 13.1041 7.38125C12.8619 6.96125 12.9315 6.77375 13.1041 6.39875C13.1069 6.395 15.1091 2.6 15.3151 1.31375Z" fill="white" fill-opacity="0.75"/>
</svg>
