<svg width="28" height="14" viewBox="0 0 28 14" fill="none" xmlns="http://www.w3.org/2000/svg">
<path d="M26.3985 1.36256C26.5841 0.853035 26.3985 0.478027 25.5059 0.478027H22.5521C21.7998 0.478027 21.4538 0.800044 21.2683 1.15875C21.2683 1.15875 19.7638 4.13842 17.6375 6.07053C16.9504 6.62896 16.6345 6.80831 16.2584 6.80831C16.0728 6.80831 15.787 6.62896 15.787 6.11944V1.36256C15.787 0.75113 15.5763 0.478027 14.9545 0.478027H10.3107C9.83927 0.478027 9.55843 0.763359 9.55843 1.02831C9.55843 1.60713 10.6216 1.74164 10.7319 3.37211V6.91022C10.7319 7.68469 10.5614 7.82736 10.1853 7.82736C9.18231 7.82736 6.74506 4.83545 5.30077 1.41147C5.0099 0.747054 4.72405 0.478027 3.9668 0.478027H1.01301C0.170507 0.478027 0 0.800044 0 1.15875C0 1.79463 1.00298 4.95366 4.66889 9.12765C7.11115 11.9769 10.5514 13.5218 13.6807 13.5218C15.5613 13.5218 15.792 13.1794 15.792 12.5883C15.792 9.86544 15.6215 9.60864 16.5643 9.60864C17.0006 9.60864 17.7528 9.78799 19.508 11.1617C21.514 12.7921 21.845 13.5218 22.9683 13.5218H25.9221C26.7646 13.5218 27.1909 13.1794 26.9452 12.5027C26.3835 11.0801 22.5872 8.15345 22.4167 7.95779C21.9804 7.50126 22.1058 7.29745 22.4167 6.88984C22.4217 6.88576 26.0274 2.76068 26.3985 1.36256Z" fill="#6F7A8B"/>
</svg>
