<svg width="99" height="14" viewBox="0 0 99 14" fill="none" xmlns="http://www.w3.org/2000/svg">
<path d="M5.423 0.964H7.582L8.942 4.959L10.302 0.964H12.478L10.421 6.455L11.951 10.314L15.368 0.929999H17.918L13.005 13H11.033L8.942 7.934L6.851 13H4.879L0 0.929999H2.516L5.95 10.314L7.446 6.455L5.423 0.964ZM23.8572 13.085C22.9732 13.085 22.1686 12.915 21.4432 12.575C20.7292 12.2237 20.1116 11.7647 19.5902 11.198C19.0802 10.62 18.6836 9.96267 18.4002 9.226C18.1169 8.48933 17.9752 7.73567 17.9752 6.965C17.9752 6.16033 18.1226 5.38967 18.4172 4.653C18.7232 3.91633 19.1369 3.26467 19.6582 2.698C20.1909 2.13133 20.8199 1.68367 21.5452 1.355C22.2706 1.015 23.0582 0.844999 23.9082 0.844999C24.7809 0.844999 25.5742 1.02633 26.2882 1.389C27.0136 1.74033 27.6312 2.205 28.1412 2.783C28.6512 3.361 29.0479 4.01833 29.3312 4.755C29.6146 5.49167 29.7562 6.23967 29.7562 6.999C29.7562 7.80367 29.6089 8.57433 29.3142 9.311C29.0196 10.0363 28.6116 10.6823 28.0902 11.249C27.5689 11.8043 26.9456 12.252 26.2202 12.592C25.4949 12.9207 24.7072 13.085 23.8572 13.085ZM20.3552 6.965C20.3552 7.48633 20.4346 7.99067 20.5932 8.478C20.7519 8.96533 20.9786 9.396 21.2732 9.77C21.5792 10.144 21.9476 10.4443 22.3782 10.671C22.8202 10.8977 23.3189 11.011 23.8742 11.011C24.4409 11.011 24.9396 10.8977 25.3702 10.671C25.8122 10.433 26.1806 10.1213 26.4752 9.736C26.7812 9.35067 27.0079 8.92 27.1552 8.444C27.3139 7.95667 27.3932 7.46367 27.3932 6.965C27.3932 6.44367 27.3082 5.93933 27.1382 5.452C26.9796 4.96467 26.7472 4.534 26.4412 4.16C26.1466 3.786 25.7782 3.49133 25.3362 3.276C24.9056 3.04933 24.4182 2.936 23.8742 2.936C23.3076 2.936 22.8032 3.055 22.3612 3.293C21.9192 3.51967 21.5509 3.82567 21.2562 4.211C20.9616 4.585 20.7349 5.01567 20.5762 5.503C20.4289 5.979 20.3552 6.46633 20.3552 6.965ZM36.7069 13.085C35.8229 13.085 35.0182 12.915 34.2929 12.575C33.5789 12.2237 32.9612 11.7647 32.4399 11.198C31.9299 10.62 31.5332 9.96267 31.2499 9.226C30.9665 8.48933 30.8249 7.73567 30.8249 6.965C30.8249 6.16033 30.9722 5.38967 31.2669 4.653C31.5729 3.91633 31.9865 3.26467 32.5079 2.698C33.0405 2.13133 33.6695 1.68367 34.3949 1.355C35.1202 1.015 35.9079 0.844999 36.7579 0.844999C37.6305 0.844999 38.4239 1.02633 39.1379 1.389C39.8632 1.74033 40.4809 2.205 40.9909 2.783C41.5009 3.361 41.8975 4.01833 42.1809 4.755C42.4642 5.49167 42.6059 6.23967 42.6059 6.999C42.6059 7.80367 42.4585 8.57433 42.1639 9.311C41.8692 10.0363 41.4612 10.6823 40.9399 11.249C40.4185 11.8043 39.7952 12.252 39.0699 12.592C38.3445 12.9207 37.5569 13.085 36.7069 13.085ZM33.2049 6.965C33.2049 7.48633 33.2842 7.99067 33.4429 8.478C33.6015 8.96533 33.8282 9.396 34.1229 9.77C34.4289 10.144 34.7972 10.4443 35.2279 10.671C35.6699 10.8977 36.1685 11.011 36.7239 11.011C37.2905 11.011 37.7892 10.8977 38.2199 10.671C38.6619 10.433 39.0302 10.1213 39.3249 9.736C39.6309 9.35067 39.8575 8.92 40.0049 8.444C40.1635 7.95667 40.2429 7.46367 40.2429 6.965C40.2429 6.44367 40.1579 5.93933 39.9879 5.452C39.8292 4.96467 39.5969 4.534 39.2909 4.16C38.9962 3.786 38.6279 3.49133 38.1859 3.276C37.7552 3.04933 37.2679 2.936 36.7239 2.936C36.1572 2.936 35.6529 3.055 35.2109 3.293C34.7689 3.51967 34.4005 3.82567 34.1059 4.211C33.8112 4.585 33.5845 5.01567 33.4259 5.503C33.2785 5.979 33.2049 6.46633 33.2049 6.965ZM44.4055 13V0.929999H48.7915C49.7775 0.929999 50.6388 1.08867 51.3755 1.406C52.1235 1.72333 52.7468 2.154 53.2455 2.698C53.7441 3.242 54.1181 3.88233 54.3675 4.619C54.6168 5.34433 54.7415 6.12067 54.7415 6.948C54.7415 7.866 54.5998 8.699 54.3165 9.447C54.0445 10.1837 53.6478 10.8183 53.1265 11.351C52.6051 11.8723 51.9761 12.2803 51.2395 12.575C50.5141 12.8583 49.6981 13 48.7915 13H44.4055ZM52.3785 6.948C52.3785 6.37 52.2991 5.83733 52.1405 5.35C51.9818 4.86267 51.7495 4.44333 51.4435 4.092C51.1375 3.74067 50.7578 3.46867 50.3045 3.276C49.8625 3.08333 49.3581 2.987 48.7915 2.987H46.7515V10.943H48.7915C49.3695 10.943 49.8795 10.841 50.3215 10.637C50.7748 10.433 51.1488 10.1553 51.4435 9.804C51.7495 9.44133 51.9818 9.01633 52.1405 8.529C52.2991 8.04167 52.3785 7.51467 52.3785 6.948ZM65.037 2.987H61.178V13H58.849V2.987H54.99V0.929999H65.037V2.987ZM74.9163 10.943V13H66.5353V0.929999H74.7633V2.987H68.8813V5.894H73.9643V7.798H68.8813V10.943H74.9163ZM75.7653 6.88C75.7653 6.14333 75.8956 5.418 76.1563 4.704C76.4283 3.97867 76.8193 3.33267 77.3293 2.766C77.8393 2.19933 78.4626 1.74033 79.1993 1.389C79.9359 1.03767 80.7746 0.861999 81.7153 0.861999C82.8259 0.861999 83.7836 1.10567 84.5883 1.593C85.4043 2.08033 86.0106 2.715 86.4073 3.497L84.6053 4.738C84.4466 4.398 84.2539 4.11467 84.0273 3.888C83.8006 3.65 83.5569 3.463 83.2963 3.327C83.0356 3.191 82.7636 3.09467 82.4803 3.038C82.1969 2.97 81.9193 2.936 81.6473 2.936C81.0579 2.936 80.5423 3.055 80.1003 3.293C79.6696 3.531 79.3069 3.84267 79.0123 4.228C78.7289 4.602 78.5136 5.03267 78.3663 5.52C78.2189 5.996 78.1453 6.472 78.1453 6.948C78.1453 7.48067 78.2303 7.99633 78.4003 8.495C78.5703 8.98233 78.8083 9.413 79.1143 9.787C79.4316 10.161 79.8056 10.4613 80.2363 10.688C80.6783 10.9147 81.1599 11.028 81.6813 11.028C81.9533 11.028 82.2366 10.994 82.5313 10.926C82.8259 10.858 83.1036 10.7503 83.3643 10.603C83.6363 10.4557 83.8856 10.2687 84.1123 10.042C84.3389 9.804 84.5203 9.52067 84.6563 9.192L86.5773 10.297C86.3846 10.7503 86.1069 11.1527 85.7443 11.504C85.3929 11.844 84.9906 12.133 84.5373 12.371C84.0953 12.609 83.6193 12.7903 83.1093 12.915C82.5993 13.0397 82.1006 13.102 81.6133 13.102C80.7519 13.102 79.9643 12.9207 79.2503 12.558C78.5363 12.1953 77.9186 11.725 77.3973 11.147C76.8873 10.5577 76.4849 9.89467 76.1903 9.158C75.9069 8.41 75.7653 7.65067 75.7653 6.88ZM98.2996 0.929999V13H95.9706V7.849H90.4966V13H88.1506V0.929999H90.4966V5.809H95.9706V0.929999H98.2996Z" fill="white"/>
</svg>
