<svg width="338" height="45" viewBox="0 0 338 45" fill="none" xmlns="http://www.w3.org/2000/svg">
<path d="M21.4116 2.405H24.3616L30.6156 17.627L36.8696 2.405H39.8196L32.4446 20.046L41.2356 40.46L57.2836 2.11H60.5876L42.6516 44H39.8786L30.6746 22.465L21.4116 44H18.6386L0.761633 2.11H4.00663L20.1136 40.46L28.7866 20.046L21.4116 2.405ZM75.0731 44.59C72.9097 44.59 70.9037 44.177 69.0551 43.351C67.2457 42.4857 65.6724 41.3253 64.3351 39.87C62.9977 38.4147 61.9554 36.7233 61.2081 34.796C60.4607 32.8687 60.0871 30.843 60.0871 28.719C60.0871 26.5557 60.4607 24.5103 61.2081 22.583C61.9947 20.6557 63.0567 18.9643 64.3941 17.509C65.7314 16.0537 67.3047 14.913 69.1141 14.087C70.9627 13.2217 72.9491 12.789 75.0731 12.789C77.1971 12.789 79.1637 13.2217 80.9731 14.087C82.7824 14.913 84.3557 16.0537 85.6931 17.509C87.0697 18.9643 88.1317 20.6557 88.8791 22.583C89.6657 24.5103 90.0591 26.5557 90.0591 28.719C90.0591 30.843 89.6657 32.8687 88.8791 34.796C88.1317 36.7233 87.0894 38.4147 85.7521 39.87C84.4147 41.3253 82.8217 42.4857 80.9731 43.351C79.1637 44.177 77.1971 44.59 75.0731 44.59ZM63.0371 28.837C63.0371 30.6463 63.3517 32.3573 63.9811 33.97C64.6104 35.5433 65.4561 36.92 66.5181 38.1C67.6194 39.28 68.8977 40.224 70.3531 40.932C71.8084 41.6007 73.3621 41.935 75.0141 41.935C76.6661 41.935 78.2197 41.6007 79.6751 40.932C81.1304 40.224 82.4087 39.2603 83.5101 38.041C84.6114 36.8217 85.4767 35.4253 86.1061 33.852C86.7354 32.2393 87.0501 30.5087 87.0501 28.66C87.0501 26.8507 86.7354 25.1593 86.1061 23.586C85.4767 21.9733 84.6114 20.577 83.5101 19.397C82.4087 18.1777 81.1304 17.214 79.6751 16.506C78.2591 15.798 76.7251 15.444 75.0731 15.444C73.4211 15.444 71.8674 15.798 70.4121 16.506C68.9567 17.214 67.6784 18.1777 66.5771 19.397C65.5151 20.6163 64.6497 22.052 63.9811 23.704C63.3517 25.3167 63.0371 27.0277 63.0371 28.837ZM109.989 44.59C107.826 44.59 105.82 44.177 103.971 43.351C102.162 42.4857 100.588 41.3253 99.2511 39.87C97.9137 38.4147 96.8714 36.7233 96.1241 34.796C95.3767 32.8687 95.0031 30.843 95.0031 28.719C95.0031 26.5557 95.3767 24.5103 96.1241 22.583C96.9107 20.6557 97.9727 18.9643 99.3101 17.509C100.647 16.0537 102.221 14.913 104.03 14.087C105.879 13.2217 107.865 12.789 109.989 12.789C112.113 12.789 114.08 13.2217 115.889 14.087C117.698 14.913 119.272 16.0537 120.609 17.509C121.986 18.9643 123.048 20.6557 123.795 22.583C124.582 24.5103 124.975 26.5557 124.975 28.719C124.975 30.843 124.582 32.8687 123.795 34.796C123.048 36.7233 122.005 38.4147 120.668 39.87C119.331 41.3253 117.738 42.4857 115.889 43.351C114.08 44.177 112.113 44.59 109.989 44.59ZM97.9531 28.837C97.9531 30.6463 98.2677 32.3573 98.8971 33.97C99.5264 35.5433 100.372 36.92 101.434 38.1C102.535 39.28 103.814 40.224 105.269 40.932C106.724 41.6007 108.278 41.935 109.93 41.935C111.582 41.935 113.136 41.6007 114.591 40.932C116.046 40.224 117.325 39.2603 118.426 38.041C119.527 36.8217 120.393 35.4253 121.022 33.852C121.651 32.2393 121.966 30.5087 121.966 28.66C121.966 26.8507 121.651 25.1593 121.022 23.586C120.393 21.9733 119.527 20.577 118.426 19.397C117.325 18.1777 116.046 17.214 114.591 16.506C113.175 15.798 111.641 15.444 109.989 15.444C108.337 15.444 106.783 15.798 105.328 16.506C103.873 17.214 102.594 18.1777 101.493 19.397C100.431 20.6163 99.5657 22.052 98.8971 23.704C98.2677 25.3167 97.9531 27.0277 97.9531 28.837ZM144.669 44.59C142.545 44.59 140.578 44.1573 138.769 43.292C136.96 42.3873 135.386 41.2073 134.049 39.752C132.751 38.2573 131.728 36.566 130.981 34.678C130.273 32.7507 129.919 30.7643 129.919 28.719C129.919 26.595 130.273 24.5693 130.981 22.642C131.689 20.7147 132.672 19.0233 133.931 17.568C135.19 16.1127 136.665 14.9523 138.356 14.087C140.087 13.2217 141.975 12.789 144.02 12.789C145.357 12.789 146.616 12.9857 147.796 13.379C148.976 13.7723 150.077 14.3033 151.1 14.972C152.123 15.6013 153.047 16.3487 153.873 17.214C154.699 18.0793 155.407 19.0037 155.997 19.987V0.929999H158.947V39.87C158.947 40.8533 159.36 41.345 160.186 41.345V44C159.95 44.0393 159.753 44.059 159.596 44.059C159.439 44.0983 159.281 44.118 159.124 44.118C158.337 44.118 157.669 43.823 157.118 43.233C156.567 42.6037 156.292 41.9547 156.292 41.286V37.864C155.033 39.9093 153.342 41.5417 151.218 42.761C149.133 43.9803 146.95 44.59 144.669 44.59ZM145.2 41.935C146.262 41.935 147.403 41.7187 148.622 41.286C149.841 40.8533 150.962 40.2633 151.985 39.516C153.047 38.7293 153.952 37.8443 154.699 36.861C155.446 35.8777 155.879 34.8157 155.997 33.675V23.586C155.564 22.4847 154.935 21.4423 154.109 20.459C153.322 19.4363 152.418 18.571 151.395 17.863C150.372 17.1157 149.271 16.5257 148.091 16.093C146.911 15.6603 145.77 15.444 144.669 15.444C142.899 15.444 141.286 15.8373 139.831 16.624C138.376 17.3713 137.137 18.3743 136.114 19.633C135.091 20.8523 134.305 22.2683 133.754 23.881C133.203 25.4543 132.928 27.0867 132.928 28.778C132.928 30.548 133.243 32.2197 133.872 33.793C134.501 35.3663 135.367 36.7627 136.468 37.982C137.609 39.2013 138.907 40.165 140.362 40.873C141.857 41.581 143.469 41.935 145.2 41.935ZM201.677 2.11V44H198.668V23.94H172.236V44H169.227V2.11H172.236V21.226H198.668V2.11H201.677ZM224.186 44.59C222.023 44.59 220.017 44.177 218.168 43.351C216.359 42.4857 214.786 41.3253 213.448 39.87C212.111 38.4147 211.069 36.7233 210.321 34.796C209.574 32.8687 209.2 30.843 209.2 28.719C209.2 26.5557 209.574 24.5103 210.321 22.583C211.108 20.6557 212.17 18.9643 213.507 17.509C214.845 16.0537 216.418 14.913 218.227 14.087C220.076 13.2217 222.062 12.789 224.186 12.789C226.31 12.789 228.277 13.2217 230.086 14.087C231.896 14.913 233.469 16.0537 234.806 17.509C236.183 18.9643 237.245 20.6557 237.992 22.583C238.779 24.5103 239.172 26.5557 239.172 28.719C239.172 30.843 238.779 32.8687 237.992 34.796C237.245 36.7233 236.203 38.4147 234.865 39.87C233.528 41.3253 231.935 42.4857 230.086 43.351C228.277 44.177 226.31 44.59 224.186 44.59ZM212.15 28.837C212.15 30.6463 212.465 32.3573 213.094 33.97C213.724 35.5433 214.569 36.92 215.631 38.1C216.733 39.28 218.011 40.224 219.466 40.932C220.922 41.6007 222.475 41.935 224.127 41.935C225.779 41.935 227.333 41.6007 228.788 40.932C230.244 40.224 231.522 39.2603 232.623 38.041C233.725 36.8217 234.59 35.4253 235.219 33.852C235.849 32.2393 236.163 30.5087 236.163 28.66C236.163 26.8507 235.849 25.1593 235.219 23.586C234.59 21.9733 233.725 20.577 232.623 19.397C231.522 18.1777 230.244 17.214 228.788 16.506C227.372 15.798 225.838 15.444 224.186 15.444C222.534 15.444 220.981 15.798 219.525 16.506C218.07 17.214 216.792 18.1777 215.69 19.397C214.628 20.6163 213.763 22.052 213.094 23.704C212.465 25.3167 212.15 27.0277 212.15 28.837ZM255.739 44.59C249.21 44.59 245.945 40.0667 245.945 31.02V13.32H248.895V30.607C248.895 38.159 251.472 41.935 256.624 41.935C257.922 41.935 259.181 41.7187 260.4 41.286C261.62 40.814 262.76 40.1847 263.822 39.398C264.884 38.572 265.809 37.5887 266.595 36.448C267.421 35.3073 268.07 34.0487 268.542 32.672V13.32H271.492V39.87C271.492 40.8533 271.905 41.345 272.731 41.345V44C272.535 44.0393 272.358 44.059 272.2 44.059C272.043 44.059 271.925 44.059 271.846 44.059C271.06 44.059 270.352 43.823 269.722 43.351C269.132 42.8397 268.837 42.171 268.837 41.345V36.743C267.5 39.221 265.651 41.1483 263.291 42.525C260.971 43.9017 258.453 44.59 255.739 44.59ZM290.603 44.59C288.243 44.59 285.982 44.1967 283.818 43.41C281.655 42.6233 279.767 41.4433 278.154 39.87L279.629 37.864C281.281 39.3587 282.992 40.46 284.762 41.168C286.532 41.876 288.479 42.23 290.603 42.23C293.278 42.23 295.422 41.6793 297.034 40.578C298.686 39.4373 299.512 37.864 299.512 35.858C299.512 34.914 299.296 34.1273 298.863 33.498C298.47 32.8293 297.86 32.2787 297.034 31.846C296.208 31.374 295.186 30.961 293.966 30.607C292.747 30.253 291.331 29.8793 289.718 29.486C287.988 29.0927 286.473 28.6993 285.175 28.306C283.917 27.9127 282.874 27.4407 282.048 26.89C281.222 26.3393 280.593 25.6707 280.16 24.884C279.767 24.0973 279.57 23.0943 279.57 21.875C279.57 20.341 279.865 19.0037 280.455 17.863C281.045 16.7223 281.852 15.7783 282.874 15.031C283.936 14.2837 285.136 13.733 286.473 13.379C287.85 12.9857 289.305 12.789 290.839 12.789C293.239 12.789 295.363 13.202 297.211 14.028C299.06 14.8147 300.496 15.8373 301.518 17.096L299.866 18.689C298.844 17.509 297.506 16.624 295.854 16.034C294.242 15.444 292.511 15.149 290.662 15.149C289.522 15.149 288.44 15.267 287.417 15.503C286.434 15.739 285.569 16.1127 284.821 16.624C284.074 17.1353 283.484 17.804 283.051 18.63C282.619 19.4167 282.402 20.3607 282.402 21.462C282.402 22.3667 282.54 23.0943 282.815 23.645C283.13 24.1957 283.602 24.6677 284.231 25.061C284.9 25.4543 285.746 25.8083 286.768 26.123C287.791 26.3983 289.01 26.713 290.426 27.067C292.354 27.539 294.065 27.9913 295.559 28.424C297.054 28.8567 298.293 29.3877 299.276 30.017C300.299 30.6463 301.066 31.3937 301.577 32.259C302.128 33.1243 302.403 34.2257 302.403 35.563C302.403 38.3163 301.322 40.519 299.158 42.171C297.034 43.7837 294.183 44.59 290.603 44.59ZM322.313 44.59C320.149 44.59 318.143 44.177 316.295 43.351C314.446 42.4857 312.833 41.3253 311.457 39.87C310.119 38.3753 309.057 36.6643 308.271 34.737C307.523 32.8097 307.15 30.7447 307.15 28.542C307.15 26.3787 307.523 24.353 308.271 22.465C309.057 20.5377 310.119 18.866 311.457 17.45C312.794 15.9947 314.367 14.854 316.177 14.028C318.025 13.202 320.012 12.789 322.136 12.789C324.299 12.789 326.305 13.2217 328.154 14.087C330.002 14.913 331.595 16.0537 332.933 17.509C334.27 18.925 335.312 20.5967 336.06 22.524C336.807 24.412 337.181 26.418 337.181 28.542C337.181 28.7387 337.181 28.9943 337.181 29.309C337.181 29.5843 337.161 29.7613 337.122 29.84H310.218C310.336 31.61 310.749 33.262 311.457 34.796C312.165 36.2907 313.05 37.5887 314.112 38.69C315.213 39.7913 316.472 40.6567 317.888 41.286C319.304 41.9153 320.818 42.23 322.431 42.23C323.493 42.23 324.535 42.0923 325.558 41.817C326.58 41.5023 327.524 41.0893 328.39 40.578C329.294 40.0667 330.081 39.457 330.75 38.749C331.458 38.0017 332.008 37.1953 332.402 36.33L334.998 37.038C334.565 38.1393 333.916 39.162 333.051 40.106C332.225 41.0107 331.241 41.7973 330.101 42.466C328.999 43.1347 327.78 43.646 326.443 44C325.105 44.3933 323.729 44.59 322.313 44.59ZM334.349 27.48C334.231 25.6707 333.818 24.0187 333.11 22.524C332.441 21.0293 331.556 19.751 330.455 18.689C329.393 17.5877 328.154 16.742 326.738 16.152C325.322 15.5227 323.807 15.208 322.195 15.208C320.582 15.208 319.068 15.5227 317.652 16.152C316.236 16.742 314.977 17.5877 313.876 18.689C312.814 19.751 311.948 21.049 311.28 22.583C310.65 24.0777 310.277 25.71 310.159 27.48H334.349Z" fill="white"/>
</svg>
